<?xml version="1.0" standalone="no"?>
<!DOCTYPE svg PUBLIC "-//W3C//DTD SVG 20010904//EN"
 "http://www.w3.org/TR/2001/REC-SVG-20010904/DTD/svg10.dtd">
<svg version="1.0" xmlns="http://www.w3.org/2000/svg"
 width="1000.000000pt" height="1000.000000pt" viewBox="0 0 1000.000000 1000.000000"
 preserveAspectRatio="xMidYMid meet">
<metadata>
Created by potrace 1.11, written by Peter Selinger 2001-2013
</metadata>
<g transform="translate(0.000000,1000.000000) scale(0.100000,-0.100000)"
fill="#000000" stroke="none">
<path d="M4825 9972 c-260 -141 -490 -362 -691 -664 -174 -261 -239 -485 -238
-823 0 -115 12 -327 19 -367 20 -100 27 -493 12 -638 -15 -135 -18 -154 -43
-266 -26 -118 -59 -213 -94 -270 -62 -99 -175 -119 -234 -40 -38 51 -48 100
-51 255 -2 146 -4 161 -31 299 -41 207 -151 465 -254 593 -64 80 -173 190
-181 182 -4 -5 -10 -30 -13 -58 -4 -27 -9 -63 -11 -80 -7 -46 -16 -186 -21
-324 -7 -215 -42 -371 -114 -523 -18 -37 -74 -131 -126 -210 -356 -543 -485
-808 -555 -1140 -25 -117 -36 -417 -18 -503 30 -153 55 -229 115 -348 149
-297 468 -572 939 -807 163 -81 321 -144 330 -130 6 10 -44 87 -84 127 -82 85
-129 171 -146 268 -16 91 -12 250 10 345 3 14 8 39 10 55 16 92 117 379 186
530 57 125 114 302 125 392 8 60 34 173 47 205 17 39 63 87 95 99 115 44 239
-58 316 -261 36 -92 74 -170 84 -170 4 0 18 11 32 23 127 115 308 445 375 682
28 97 32 124 49 281 8 75 19 119 39 162 21 47 68 91 98 93 10 1 25 2 32 3 23
4 82 -25 115 -57 94 -91 200 -309 219 -448 14 -108 2 -444 -21 -630 -3 -19 -8
-85 -11 -145 l-7 -109 31 60 c46 92 110 150 171 155 55 5 74 -2 110 -38 44
-44 59 -88 75 -227 12 -107 52 -225 135 -400 112 -234 148 -365 145 -526 -3
-126 -20 -196 -82 -329 -58 -124 -58 -123 -26 -115 96 24 369 162 553 280 212
136 473 473 573 740 61 165 82 289 82 505 0 171 -9 263 -51 485 -29 160 -135
546 -199 730 -57 161 -163 588 -180 720 -2 22 -7 59 -11 81 -13 90 -19 334
-10 434 3 25 7 83 11 130 3 47 8 99 10 117 10 83 15 205 8 200 -299 -166 -485
-335 -591 -537 -45 -84 -92 -218 -109 -310 -13 -71 -72 -166 -112 -181 -99
-38 -201 4 -340 142 -162 161 -376 508 -496 806 -20 48 -40 97 -45 108 -21 45
-79 256 -94 340 -11 63 -14 135 -12 240 4 193 32 326 130 618 40 119 73 217
72 217 -1 -1 -23 -13 -51 -28z"/>
<path d="M6867 6753 c25 -76 49 -154 54 -173 4 -19 24 -98 44 -175 19 -77 38
-153 41 -170 2 -16 7 -37 9 -45 8 -27 19 -95 30 -180 4 -30 9 -58 11 -61 14
-25 22 -356 10 -472 l-6 -68 28 33 c16 18 111 134 211 258 101 124 190 234
200 245 20 24 362 444 408 501 l33 41 -82 31 c-213 78 -397 146 -443 162 -27
9 -169 60 -314 113 -145 54 -267 97 -271 97 -4 0 12 -62 37 -137z"/>
<path d="M4849 6718 c-6 -24 -10 -54 -15 -108 -36 -395 -341 -972 -570 -1077
-129 -59 -201 2 -295 247 -35 92 -86 177 -99 163 -4 -4 -11 -33 -14 -63 -7
-63 -15 -108 -22 -132 -3 -9 -6 -25 -8 -35 -13 -64 -46 -174 -58 -187 -4 -6
-8 -16 -8 -24 0 -7 -9 -33 -20 -58 -18 -39 -32 -71 -72 -164 -56 -130 -90
-227 -125 -358 -32 -121 -36 -151 -37 -262 -1 -153 13 -197 93 -290 31 -36 59
-67 63 -70 4 -3 23 -32 43 -65 45 -76 68 -152 59 -200 -7 -41 -65 -104 -97
-106 -79 -5 -101 -4 -163 11 -38 9 -99 29 -136 43 l-66 25 -509 -515 c-279
-284 -548 -557 -598 -606 l-90 -91 125 -60 c69 -32 220 -105 335 -162 l211
-102 74 25 c107 36 113 37 235 37 155 1 236 -28 303 -110 46 -56 66 -179 43
-262 -10 -32 -9 -34 32 -51 23 -10 83 -38 132 -61 50 -24 155 -73 235 -110 80
-37 176 -82 214 -100 45 -21 74 -29 82 -24 7 5 104 122 216 259 193 237 431
529 983 1205 132 162 281 345 330 405 49 61 91 112 94 115 4 3 42 50 86 105
44 55 88 110 98 122 l18 22 -38 -15 c-21 -8 -53 -22 -71 -31 -80 -36 -182 -65
-244 -69 -60 -3 -70 -1 -97 22 -61 51 -52 132 36 334 71 162 87 231 79 340 -7
110 -41 218 -128 405 -91 195 -138 336 -147 445 l-7 85 -21 -40 c-28 -53 -51
-133 -58 -203 -18 -168 -84 -249 -185 -227 -125 28 -147 172 -105 685 3 36 8
82 10 102 25 234 26 529 2 607 -24 77 -122 253 -128 229z"/>
<path d="M7970 6357 c-13 -17 -49 -63 -81 -102 -56 -68 -232 -284 -290 -355
-15 -19 -74 -92 -131 -161 -57 -69 -118 -144 -136 -167 -19 -23 -41 -50 -50
-61 -10 -11 -30 -37 -47 -57 -16 -21 -75 -93 -130 -160 -80 -98 -105 -137
-124 -191 -50 -146 -158 -333 -281 -488 -86 -107 -197 -225 -258 -272 -65 -51
-136 -99 -187 -129 -41 -25 -80 -60 -122 -112 -153 -189 -308 -380 -338 -417
-18 -22 -106 -130 -196 -240 -90 -110 -168 -205 -174 -212 -5 -7 -15 -18 -20
-25 -6 -7 -49 -60 -95 -117 -47 -58 -136 -167 -198 -244 -62 -77 -125 -154
-140 -171 -15 -18 -43 -52 -62 -76 -38 -47 -162 -200 -215 -265 -91 -111 -232
-284 -330 -405 -138 -170 -137 -170 -152 -185 -17 -17 -16 -40 2 -128 8 -40
16 -83 19 -97 3 -14 7 -34 9 -45 3 -11 8 -39 12 -63 4 -23 10 -42 13 -41 4 0
95 110 202 244 107 134 200 244 205 244 6 0 44 -22 85 -49 41 -27 75 -48 75
-47 1 1 16 21 34 45 l33 42 -30 11 -31 11 -3 103 -3 104 78 103 c42 57 83 110
90 118 6 8 55 72 107 143 52 70 97 127 100 127 6 0 90 -55 138 -90 l34 -25 24
30 c30 38 30 40 -6 55 l-30 12 0 97 1 96 189 243 189 242 80 -54 80 -55 25 32
25 31 -28 12 -27 11 2 99 c1 55 3 102 3 105 1 5 112 145 170 214 9 11 43 54
76 95 33 41 68 84 79 95 10 11 25 30 33 42 l15 22 41 -27 c23 -15 48 -33 55
-40 28 -26 54 -35 63 -21 6 10 2 17 -14 23 -12 6 -24 11 -26 13 -7 5 -8 207
-1 213 3 3 37 43 75 90 38 47 73 90 79 96 6 6 55 66 110 133 106 131 110 133
165 90 46 -36 51 -28 51 79 l0 99 181 227 181 228 31 -29 c55 -50 58 -53 61
-53 2 0 2 43 -1 95 l-4 95 177 220 c98 121 182 220 188 220 7 0 21 -7 33 -15
22 -15 22 -15 19 41 l-3 55 89 112 c49 62 97 121 106 132 9 11 40 49 68 85
l51 65 -29 139 c-15 77 -30 141 -31 143 -2 1 -14 -12 -27 -30z"/>
<path d="M8020 5883 c-41 -53 -80 -101 -85 -107 -55 -59 -79 -102 -80 -143 -2
-41 1 -46 41 -79 36 -30 51 -51 59 -84 9 -35 23 -167 31 -295 4 -55 8 -107 10
-115 1 -8 3 -22 3 -31 1 -9 17 -24 36 -33 29 -14 35 -22 36 -49 0 -18 2 -72 4
-122 2 -49 6 -157 10 -240 3 -82 9 -153 14 -158 25 -25 32 71 31 390 -1 181 1
337 3 349 3 12 15 51 26 88 27 86 36 183 36 386 0 116 -4 177 -14 205 -16 44
-69 135 -79 135 -4 0 -41 -44 -82 -97z"/>
<path d="M7679 5448 c-13 -18 -36 -46 -50 -62 -32 -39 -43 -52 -124 -153 -63
-79 -65 -84 -63 -133 2 -31 8 -50 15 -50 7 0 30 -17 51 -37 40 -39 48 -64 57
-183 2 -19 6 -62 10 -95 8 -78 13 -150 14 -203 1 -40 4 -44 44 -63 40 -20 43
-24 44 -63 1 -33 13 -367 17 -476 1 -14 6 -34 13 -45 10 -17 12 -16 27 20 15
35 16 76 11 350 -3 170 -5 322 -5 338 0 15 16 73 35 130 40 119 52 225 50 432
-1 129 -3 145 -27 197 -27 59 -75 128 -88 128 -4 0 -18 -14 -31 -32z"/>
<path d="M7122 4756 l-132 -166 0 -53 c0 -51 1 -54 38 -74 75 -43 94 -82 106
-213 4 -36 9 -92 12 -125 8 -89 12 -145 13 -187 1 -32 6 -39 43 -60 37 -20 43
-28 44 -58 1 -19 5 -135 9 -257 7 -250 7 -241 22 -268 11 -19 13 -18 26 14 11
27 13 91 10 345 -2 171 -4 325 -5 341 0 17 16 77 35 135 39 114 48 183 52 384
4 192 -18 267 -107 370 l-33 38 -133 -166z"/>
<path d="M6764 4307 c-16 -18 -47 -55 -69 -82 -21 -28 -42 -52 -45 -55 -3 -3
-34 -41 -70 -85 -35 -44 -67 -82 -70 -85 -3 -3 -5 -26 -5 -53 1 -45 3 -49 40
-68 82 -41 97 -66 114 -189 7 -47 14 -96 16 -110 2 -14 6 -50 9 -80 16 -168
23 -189 65 -190 40 -1 49 -23 56 -136 4 -60 8 -134 10 -164 2 -30 7 -102 11
-160 4 -74 11 -110 22 -122 22 -26 31 -22 49 20 13 32 15 70 9 272 -4 129 -8
255 -11 280 -12 130 -8 163 30 255 20 50 39 101 40 115 19 132 21 372 5 443
-16 73 -56 128 -156 210 -20 16 -22 16 -50 -16z"/>
<path d="M6258 3672 c-25 -31 -90 -113 -146 -180 -95 -118 -100 -126 -97 -168
1 -24 4 -45 6 -47 2 -1 30 -15 62 -32 73 -37 75 -41 92 -112 14 -60 22 -119
40 -283 18 -167 12 -152 68 -170 21 -7 40 -17 42 -24 4 -11 9 -88 21 -321 3
-60 7 -119 9 -130 2 -11 4 -34 4 -52 1 -20 10 -40 24 -53 l22 -21 17 38 c15
33 17 65 13 249 -4 202 -10 319 -20 411 -4 33 3 63 35 142 50 127 50 125 57
323 7 200 -5 278 -50 341 -35 48 -80 93 -124 125 l-30 21 -45 -57z"/>
<path d="M5626 2892 c-132 -169 -146 -191 -146 -227 0 -38 2 -41 56 -70 30
-16 64 -39 75 -51 19 -20 60 -184 73 -294 3 -25 8 -54 10 -65 2 -11 7 -45 11
-75 10 -83 12 -87 60 -100 25 -7 45 -15 46 -19 0 -3 2 -15 4 -26 2 -11 7 -47
10 -80 6 -56 11 -94 20 -155 2 -14 7 -56 11 -95 3 -38 8 -79 10 -90 2 -11 6
-42 9 -70 4 -35 12 -56 28 -69 22 -18 22 -18 35 15 13 31 16 108 8 189 -2 19
-7 82 -11 140 -4 58 -9 113 -11 123 -2 10 -6 48 -10 85 -3 36 -7 73 -9 82 -19
101 -17 128 20 239 36 108 37 114 37 263 0 302 -15 369 -110 470 -78 83 -63
91 -226 -120z"/>
<path d="M2035 2547 c-20 -78 -38 -146 -39 -152 -1 -5 -6 -24 -10 -41 -5 -24
2 -53 32 -130 21 -54 54 -139 72 -188 l34 -89 250 -122 c138 -67 391 -191 561
-275 301 -148 650 -319 1022 -501 100 -49 183 -89 185 -89 2 0 4 8 5 18 1 10
9 63 18 117 15 87 15 130 0 200 -2 6 -10 48 -19 95 -9 47 -18 96 -21 110 -3
14 -10 52 -16 85 -6 33 -13 67 -14 75 -2 8 -4 20 -4 26 -1 6 -34 26 -73 44
-40 18 -115 53 -166 77 -52 23 -96 43 -98 43 -2 0 -36 15 -76 34 -219 103
-271 126 -279 126 -9 0 -10 -18 -11 -211 l-1 -96 -329 163 -328 164 -1 102
c-2 253 0 241 -39 260 -158 76 -427 205 -479 230 -36 16 -81 38 -101 48 l-37
19 -38 -142z"/>
<path d="M1903 2577 c-80 -86 -97 -153 -91 -356 l4 -129 30 -25 30 -26 -1
-216 c-1 -177 2 -224 15 -253 l16 -36 22 29 c19 24 22 41 23 119 0 50 3 157 5
237 l5 146 -49 125 -49 126 37 143 c21 79 37 145 36 146 -1 2 -16 -12 -33 -30z"/>
<path d="M2936 2410 c-109 -32 -103 -24 -101 -140 1 -55 5 -103 8 -107 4 -3
28 2 54 13 27 10 50 19 53 19 6 1 68 14 100 20 58 13 168 5 218 -14 58 -23 62
-20 62 57 0 67 -27 112 -85 142 -67 34 -209 39 -309 10z"/>
<path d="M5169 2338 c-35 -46 -98 -129 -141 -185 -73 -96 -78 -105 -78 -152 0
-49 0 -49 43 -66 76 -29 96 -52 117 -135 11 -41 22 -91 25 -110 3 -19 16 -96
28 -170 l23 -135 49 -16 49 -15 12 -85 c7 -46 15 -104 17 -129 7 -62 37 -290
42 -318 2 -13 14 -31 27 -42 23 -18 23 -18 40 13 17 32 18 113 3 267 -3 25 -7
72 -10 105 -6 64 -8 78 -19 165 -4 30 -9 73 -12 95 -2 22 -7 51 -10 65 -2 15
12 73 35 140 l39 115 -3 190 c-3 193 -7 236 -27 290 -12 33 -71 110 -103 136
-11 9 -31 26 -44 38 -13 12 -28 21 -32 21 -4 0 -36 -37 -70 -82z"/>
<path d="M3088 2148 c-55 -7 -142 -38 -181 -64 -17 -11 -2 -20 120 -79 76 -37
163 -80 194 -96 l56 -28 1 120 c0 108 -2 121 -20 130 -32 17 -110 25 -170 17z"/>
<path d="M4549 1539 c-79 -99 -151 -189 -159 -199 -10 -12 -14 -33 -12 -62 3
-41 7 -46 40 -58 103 -37 126 -70 156 -215 24 -119 24 -121 46 -244 10 -62 21
-114 22 -115 2 -1 25 -9 53 -17 l50 -15 11 -69 c6 -39 15 -95 18 -125 4 -30 8
-66 11 -80 2 -14 9 -63 15 -110 25 -187 25 -187 54 -212 30 -25 35 -23 53 19
20 46 19 123 -2 323 -2 19 -7 64 -10 100 -4 36 -9 73 -11 84 -2 10 -6 44 -10
75 -3 31 -8 65 -10 76 -14 76 -13 96 7 146 61 157 63 165 63 339 0 242 -13
314 -70 391 -32 44 -90 97 -145 132 l-25 17 -145 -181z"/>
</g>
</svg>
